<svg xmlns="http://www.w3.org/2000/svg" viewBox="0 0 800 800" fill="currentColor">
  <!-- Eagle Wings -->
  <path d="M185 120c-40 30-70 80-75 130-3 30 5 50 20 50 20 0 45-30 70-80 20-40 35-75 40-100 5-25-30-20-55 0z"/>
  <path d="M615 120c40 30 70 80 75 130 3 30-5 50-20 50-20 0-45-30-70-80-20-40-35-75-40-100-5-25 30-20 55 0z"/>
  <path d="M220 180c-30 25-50 60-55 95-3 25 5 40 20 40 15 0 35-25 55-65 15-30 25-55 30-80 5-20-25-15-50 10z"/>
  <path d="M580 180c30 25 50 60 55 95 3 25-5 40-20 40-15 0-35-25-55-65-15-30-25-55-30-80-5-20 25-15 50 10z"/>
  <path d="M255 240c-25 20-40 50-45 80-3 20 5 35 15 35 12 0 28-20 45-55 12-25 20-45 25-65 5-18-20-12-40 5z"/>
  <path d="M545 240c25 20 40 50 45 80 3 20-5 35-15 35-12 0-28-20-45-55-12-25-20-45-25-65-5-18 20-12 40 5z"/>
  
  <!-- Eagle Body/V shape -->
  <path d="M400 200l-45 120h90l-45-120z"/>
  <path d="M355 320l-30 50 75 30 75-30-30-50z"/>
  
  <!-- Open Book -->
  <path d="M230 275c0 0-30 15-30 45v200c0 30 30 45 30 45l170-30v-230z"/>
  <path d="M570 275c0 0 30 15 30 45v200c0 30-30 45-30 45l-170-30v-230z"/>
  
  <!-- Book Pages Details -->
  <path d="M245 320h140M245 360h140M245 400h140M245 440h140M245 480h140" stroke="currentColor" stroke-width="3" fill="none"/>
  <path d="M555 320h-140M555 360h-140M555 400h-140M555 440h-140M555 480h-140" stroke="currentColor" stroke-width="3" fill="none"/>
  
  <!-- Center Book Spine -->
  <rect x="390" y="275" width="20" height="290" rx="2"/>
</svg>